{
    "asset" : {
        "generator" : "Khronos glTF Blender I/O v1.5.17",
        "version" : "2.0"
    },
    "scene" : 0,
    "scenes" : [
        {
            "name" : "Scene",
            "nodes" : [
                0,
                1,
                3,
                4,
                5,
                6,
                7,
                8,
                9
            ]
        }
    ],
    "nodes" : [
        {
            "name" : "Light",
            "rotation" : [
                -0.07495280355215073,
                0.17045344412326813,
                -0.9146748185157776,
                0.3587445914745331
            ],
            "scale" : [
                1,
                1,
                -1.309999942779541
            ],
            "translation" : [
                5.444315433502197,
                -6.385280609130859,
                -1.945249080657959
            ]
        },
        {
            "name" : "Camera",
            "rotation" : [
                0.483536034822464,
                0.33687159419059753,
                -0.20870360732078552,
                0.7804827094078064
            ],
            "translation" : [
                7.358891487121582,
                4.958309173583984,
                6.925790786743164
            ]
        },
        {
            "mesh" : 0,
            "name" : "Text",
            "scale" : [
                0.1873331069946289,
                16.761167526245117,
                0.2908592224121094
            ],
            "translation" : [
                -0.8967353105545044,
                -1.1653251647949219,
                -0.6811347007751465
            ]
        },
        {
            "children" : [
                2
            ],
            "mesh" : 1,
            "name" : "Cube",
            "rotation" : [
                0.15385396778583527,
                -0.003222821978852153,
                -0.15592648088932037,
                0.9757077097892761
            ],
            "scale" : [
                3.5715606212615967,
                0.024213986471295357,
                2.300327777862549
            ],
            "translation" : [
                -0.19128261506557465,
                0.17780323326587677,
                -0.07255435734987259
            ]
        },
        {
            "mesh" : 2,
            "name" : "Text.001",
            "scale" : [
                1.4896290302276611,
                0.903599739074707,
                1.4896290302276611
            ],
            "translation" : [
                -2.6453685760498047,
                -0.02330644428730011,
                -0.0669274628162384
            ]
        },
        {
            "mesh" : 3,
            "name" : "Torus.001",
            "scale" : [
                3.3630530834198,
                2.1298794746398926,
                2.447352409362793
            ]
        },
        {
            "name" : "Camera.001",
            "translation" : [
                0,
                16.15569496154785,
                0.19999998807907104
            ]
        },
        {
            "name" : "Light.001",
            "rotation" : [
                -0.00774845527485013,
                0.11240383982658386,
                0.321466326713562,
                -0.9401940107345581
            ],
            "translation" : [
                3.6527867317199707,
                10.666613578796387,
                -0.3916054964065552
            ]
        },
        {
            "name" : "Area",
            "rotation" : [
                -0.46121424436569214,
                0.022168921306729317,
                0.17662152647972107,
                0.8692495822906494
            ],
            "scale" : [
                11.031319618225098,
                11.031320571899414,
                11.031320571899414
            ],
            "translation" : [
                -2.8168129920959473,
                10.943592071533203,
                -12.381946563720703
            ]
        },
        {
            "name" : "Area.001",
            "rotation" : [
                -0.9685541391372681,
                0.17495763301849365,
                0.032809216529130936,
                -0.17382816970348358
            ],
            "scale" : [
                11.031319618225098,
                11.031320571899414,
                11.031320571899414
            ],
            "translation" : [
                -2.8168129920959473,
                -18.1846923828125,
                9.865640640258789
            ]
        }
    ],
    "materials" : [
        {
            "doubleSided" : true,
            "name" : "Material.002",
            "pbrMetallicRoughness" : {}
        },
        {
            "doubleSided" : true,
            "name" : "Material.001",
            "pbrMetallicRoughness" : {
                "baseColorFactor" : [
                    0.800000011920929,
                    0.800000011920929,
                    0.800000011920929,
                    1
                ],
                "roughnessFactor" : 0.11711711436510086
            }
        },
        {
            "doubleSided" : true,
            "name" : "Material.004",
            "pbrMetallicRoughness" : {}
        }
    ],
    "meshes" : [
        {
            "name" : "Text",
            "primitives" : [
                {
                    "attributes" : {
                        "POSITION" : 0,
                        "NORMAL" : 1,
                        "TEXCOORD_0" : 2
                    },
                    "indices" : 3,
                    "material" : 0
                }
            ]
        },
        {
            "name" : "Cube.001",
            "primitives" : [
                {
                    "attributes" : {
                        "POSITION" : 4,
                        "NORMAL" : 5,
                        "TEXCOORD_0" : 6
                    },
                    "indices" : 7,
                    "material" : 1
                }
            ]
        },
        {
            "name" : "Text.001",
            "primitives" : [
                {
                    "attributes" : {
                        "POSITION" : 8,
                        "NORMAL" : 9,
                        "TEXCOORD_0" : 10
                    },
                    "indices" : 11
                }
            ]
        },
        {
            "name" : "Torus.001",
            "primitives" : [
                {
                    "attributes" : {
                        "POSITION" : 12,
                        "NORMAL" : 13,
                        "TEXCOORD_0" : 14
                    },
                    "indices" : 15,
                    "material" : 2
                }
            ]
        }
    ],
    "accessors" : [
        {
            "bufferView" : 0,
            "componentType" : 5126,
            "count" : 3663,
            "max" : [
                7.023383140563965,
                0.17000000178813934,
                0.007794232107698917
            ],
            "min" : [
                0.04364769905805588,
                -0.17000000178813934,
                -0.5845674276351929
            ],
            "type" : "VEC3"
        },
        {
            "bufferView" : 1,
            "componentType" : 5126,
            "count" : 3663,
            "type" : "VEC3"
        },
        {
            "bufferView" : 2,
            "componentType" : 5126,
            "count" : 3663,
            "type" : "VEC2"
        },
        {
            "bufferView" : 3,
            "componentType" : 5123,
            "count" : 7056,
            "type" : "SCALAR"
        },
        {
            "bufferView" : 4,
            "componentType" : 5126,
            "count" : 2951,
            "max" : [
                1,
                1,
                1
            ],
            "min" : [
                -1,
                -1,
                -1
            ],
            "type" : "VEC3"
        },
        {
            "bufferView" : 5,
            "componentType" : 5126,
            "count" : 2951,
            "type" : "VEC3"
        },
        {
            "bufferView" : 6,
            "componentType" : 5126,
            "count" : 2951,
            "type" : "VEC2"
        },
        {
            "bufferView" : 7,
            "componentType" : 5123,
            "count" : 6060,
            "type" : "SCALAR"
        },
        {
            "bufferView" : 8,
            "componentType" : 5126,
            "count" : 2611,
            "max" : [
                3.495713472366333,
                0.17000000178813934,
                0.7077943086624146
            ],
            "min" : [
                0.04364769905805588,
                -0.17000000178813934,
                -0.5533905029296875
            ],
            "type" : "VEC3"
        },
        {
            "bufferView" : 9,
            "componentType" : 5126,
            "count" : 2611,
            "type" : "VEC3"
        },
        {
            "bufferView" : 10,
            "componentType" : 5126,
            "count" : 2611,
            "type" : "VEC2"
        },
        {
            "bufferView" : 11,
            "componentType" : 5123,
            "count" : 5100,
            "type" : "SCALAR"
        },
        {
            "bufferView" : 12,
            "componentType" : 5126,
            "count" : 1998,
            "max" : [
                1.25,
                0.25,
                1.2494510412216187
            ],
            "min" : [
                -1.2478046417236328,
                -0.25,
                -1.2494510412216187
            ],
            "type" : "VEC3"
        },
        {
            "bufferView" : 13,
            "componentType" : 5126,
            "count" : 1998,
            "type" : "VEC3"
        },
        {
            "bufferView" : 14,
            "componentType" : 5126,
            "count" : 1998,
            "type" : "VEC2"
        },
        {
            "bufferView" : 15,
            "componentType" : 5123,
            "count" : 11448,
            "type" : "SCALAR"
        }
    ],
    "bufferViews" : [
        {
            "buffer" : 0,
            "byteLength" : 43956,
            "byteOffset" : 0
        },
        {
            "buffer" : 0,
            "byteLength" : 43956,
            "byteOffset" : 43956
        },
        {
            "buffer" : 0,
            "byteLength" : 29304,
            "byteOffset" : 87912
        },
        {
            "buffer" : 0,
            "byteLength" : 14112,
            "byteOffset" : 117216
        },
        {
            "buffer" : 0,
            "byteLength" : 35412,
            "byteOffset" : 131328
        },
        {
            "buffer" : 0,
            "byteLength" : 35412,
            "byteOffset" : 166740
        },
        {
            "buffer" : 0,
            "byteLength" : 23608,
            "byteOffset" : 202152
        },
        {
            "buffer" : 0,
            "byteLength" : 12120,
            "byteOffset" : 225760
        },
        {
            "buffer" : 0,
            "byteLength" : 31332,
            "byteOffset" : 237880
        },
        {
            "buffer" : 0,
            "byteLength" : 31332,
            "byteOffset" : 269212
        },
        {
            "buffer" : 0,
            "byteLength" : 20888,
            "byteOffset" : 300544
        },
        {
            "buffer" : 0,
            "byteLength" : 10200,
            "byteOffset" : 321432
        },
        {
            "buffer" : 0,
            "byteLength" : 23976,
            "byteOffset" : 331632
        },
        {
            "buffer" : 0,
            "byteLength" : 23976,
            "byteOffset" : 355608
        },
        {
            "buffer" : 0,
            "byteLength" : 15984,
            "byteOffset" : 379584
        },
        {
            "buffer" : 0,
            "byteLength" : 22896,
            "byteOffset" : 395568
        }
    ],
    "buffers" : [
        {
            "byteLength" : 418464,
            "uri" : "data:application/octet-stream;base64,"
        }
    ]
}
